<svg width="112" height="112" viewBox="0 0 112 112" fill="none" xmlns="http://www.w3.org/2000/svg">
<g id="file">
<path id="Vector" d="M60.6667 9.33334H28C25.5247 9.33334 23.1507 10.3167 21.4003 12.067C19.65 13.8174 18.6667 16.1913 18.6667 18.6667V93.3333C18.6667 95.8087 19.65 98.1827 21.4003 99.933C23.1507 101.683 25.5247 102.667 28 102.667H84C86.4754 102.667 88.8493 101.683 90.5997 99.933C92.35 98.1827 93.3333 95.8087 93.3333 93.3333V42L60.6667 9.33334Z" fill="#175CD3"/>
<path id="Vector_2" opacity="0.3" d="M60.9766 9.5817V38.2484C60.9766 40.4575 62.7674 42.2484 64.9766 42.2484H93.6432" fill="white"/>
<g id="DOC">
<path d="M32.2424 88.6667H25.3419V68.303H32.3816C34.4034 68.303 36.1402 68.7107 37.5919 69.526C39.0502 70.3347 40.1705 71.4981 40.9527 73.0161C41.7348 74.5341 42.1259 76.3504 42.1259 78.465C42.1259 80.5862 41.7315 82.4091 40.9427 83.9337C40.1605 85.4583 39.0303 86.6283 37.5521 87.4436C36.0805 88.259 34.3106 88.6667 32.2424 88.6667ZM29.0308 85.4749H32.0634C33.482 85.4749 34.6652 85.2164 35.6132 84.6993C36.5611 84.1757 37.2737 83.3968 37.7509 82.3627C38.2282 81.322 38.4669 80.0227 38.4669 78.465C38.4669 76.9072 38.2282 75.6146 37.7509 74.5871C37.2737 73.553 36.5677 72.7808 35.6331 72.2704C34.705 71.7533 33.5516 71.4948 32.1728 71.4948H29.0308V85.4749Z" fill="white"/>
<path d="M63.8269 78.4848C63.8269 80.679 63.416 82.5582 62.594 84.1226C61.7786 85.6804 60.665 86.8736 59.2531 87.7022C57.8478 88.5308 56.2536 88.9451 54.4704 88.9451C52.6873 88.9451 51.0897 88.5308 49.6778 87.7022C48.2725 86.8669 47.1589 85.6704 46.3369 84.1127C45.5215 82.5483 45.1139 80.6723 45.1139 78.4848C45.1139 76.2907 45.5215 74.4148 46.3369 72.857C47.1589 71.2926 48.2725 70.0961 49.6778 69.2675C51.0897 68.4389 52.6873 68.0246 54.4704 68.0246C56.2536 68.0246 57.8478 68.4389 59.2531 69.2675C60.665 70.0961 61.7786 71.2926 62.594 72.857C63.416 74.4148 63.8269 76.2907 63.8269 78.4848ZM60.1181 78.4848C60.1181 76.9403 59.8762 75.6378 59.3923 74.5772C58.915 73.5099 58.2521 72.7045 57.4036 72.161C56.5552 71.6108 55.5774 71.3357 54.4704 71.3357C53.3634 71.3357 52.3857 71.6108 51.5372 72.161C50.6887 72.7045 50.0225 73.5099 49.5386 74.5772C49.0613 75.6378 48.8227 76.9403 48.8227 78.4848C48.8227 80.0293 49.0613 81.3352 49.5386 82.4025C50.0225 83.4631 50.6887 84.2685 51.5372 84.8186C52.3857 85.3622 53.3634 85.634 54.4704 85.634C55.5774 85.634 56.5552 85.3622 57.4036 84.8186C58.2521 84.2685 58.915 83.4631 59.3923 82.4025C59.8762 81.3352 60.1181 80.0293 60.1181 78.4848Z" fill="white"/>
<path d="M84.7449 75.1738H81.0262C80.9201 74.5639 80.7245 74.0237 80.4395 73.553C80.1545 73.0757 79.7998 72.6714 79.3756 72.34C78.9514 72.0085 78.4674 71.7599 77.9239 71.5942C77.387 71.4219 76.8069 71.3357 76.1838 71.3357C75.0768 71.3357 74.0958 71.6141 73.2406 72.1709C72.3855 72.7211 71.716 73.5298 71.2321 74.5971C70.7482 75.6577 70.5063 76.9536 70.5063 78.4848C70.5063 80.0426 70.7482 81.3551 71.2321 82.4223C71.7227 83.4829 72.3922 84.285 73.2406 84.8286C74.0958 85.3655 75.0735 85.634 76.1739 85.634C76.7837 85.634 77.3538 85.5544 77.8841 85.3954C78.421 85.2296 78.9016 84.9877 79.3259 84.6695C79.7567 84.3513 80.118 83.9602 80.4097 83.4962C80.708 83.0322 80.9135 82.5019 81.0262 81.9053L84.7449 81.9252C84.6057 82.893 84.3041 83.8011 83.8401 84.6496C83.3827 85.4981 82.7828 86.2472 82.0404 86.8968C81.2979 87.5398 80.4296 88.0436 79.4353 88.4081C78.4409 88.7661 77.3372 88.9451 76.1242 88.9451C74.3344 88.9451 72.7369 88.5308 71.3316 87.7022C69.9263 86.8736 68.8192 85.6771 68.0105 84.1127C67.2018 82.5483 66.7975 80.6723 66.7975 78.4848C66.7975 76.2907 67.2051 74.4148 68.0205 72.857C68.8358 71.2926 69.9461 70.0961 71.3514 69.2675C72.7567 68.4389 74.3477 68.0246 76.1242 68.0246C77.2577 68.0246 78.3117 68.1837 79.2861 68.5019C80.2605 68.8201 81.1289 69.2874 81.8912 69.9039C82.6535 70.5137 83.2799 71.2628 83.7705 72.151C84.2676 73.0327 84.5924 74.0402 84.7449 75.1738Z" fill="white"/>
</g>
</g>
</svg>
