<svg width="112" height="112" viewBox="0 0 112 112" fill="none" xmlns="http://www.w3.org/2000/svg">
<g id="file">
<path id="Vector" d="M60.6667 9.33334H28C25.5247 9.33334 23.1507 10.3167 21.4004 12.067C19.65 13.8174 18.6667 16.1913 18.6667 18.6667V93.3333C18.6667 95.8087 19.65 98.1827 21.4004 99.933C23.1507 101.683 25.5247 102.667 28 102.667H84C86.4754 102.667 88.8493 101.683 90.5997 99.933C92.35 98.1827 93.3334 95.8087 93.3334 93.3333V42L60.6667 9.33334Z" fill="#D72F21"/>
<path id="Vector_2" opacity="0.3" d="M60.9766 9.5817V38.2484C60.9766 40.4575 62.7674 42.2484 64.9766 42.2484H93.6432" fill="white"/>
<g id="PDF">
<path d="M30.0085 88.6667V68.303H37.6449C39.2093 68.303 40.5218 68.5947 41.5824 69.178C42.6496 69.7614 43.455 70.5635 43.9986 71.5843C44.5488 72.5985 44.8239 73.7519 44.8239 75.0445C44.8239 76.3504 44.5488 77.5104 43.9986 78.5246C43.4484 79.5388 42.6364 80.3376 41.5625 80.9209C40.4887 81.4976 39.1662 81.786 37.5952 81.786H32.5341V78.7533H37.098C38.0128 78.7533 38.7619 78.5942 39.3452 78.2761C39.9285 77.9579 40.3594 77.5204 40.6378 76.9636C40.9228 76.4067 41.0654 75.7671 41.0654 75.0445C41.0654 74.322 40.9228 73.6856 40.6378 73.1354C40.3594 72.5852 39.9252 72.1577 39.3353 71.8528C38.7519 71.5412 37.9995 71.3854 37.0781 71.3854H33.6975V88.6667H30.0085Z" fill="white"/>
<path d="M54.9286 88.6667H48.0281V68.303H55.0679C57.0896 68.303 58.8264 68.7107 60.2781 69.5261C61.7364 70.3348 62.8567 71.4981 63.6389 73.0161C64.4211 74.5341 64.8122 76.3504 64.8122 78.465C64.8122 80.5862 64.4178 82.4091 63.6289 83.9337C62.8467 85.4583 61.7165 86.6283 60.2383 87.4437C58.7667 88.259 56.9968 88.6667 54.9286 88.6667ZM51.717 85.4749H54.7497C56.1682 85.4749 57.3515 85.2164 58.2994 84.6993C59.2473 84.1757 59.9599 83.3968 60.4372 82.3627C60.9144 81.322 61.1531 80.0227 61.1531 78.465C61.1531 76.9072 60.9144 75.6146 60.4372 74.5871C59.9599 73.553 59.2539 72.7808 58.3193 72.2704C57.3912 71.7533 56.2378 71.4948 54.859 71.4948H51.717V85.4749Z" fill="white"/>
<path d="M68.3171 88.6667V68.303H81.3626V71.3954H72.0061V76.9238H80.4677V80.0161H72.0061V88.6667H68.3171Z" fill="white"/>
</g>
</g>
</svg>
