<svg width="112" height="112" viewBox="0 0 112 112" fill="none" xmlns="http://www.w3.org/2000/svg">
<g id="file">
<path id="Vector" d="M60.6667 9.33334H28C25.5247 9.33334 23.1507 10.3167 21.4004 12.067C19.65 13.8173 18.6667 16.1913 18.6667 18.6667V93.3333C18.6667 95.8087 19.65 98.1827 21.4004 99.933C23.1507 101.683 25.5247 102.667 28 102.667H84C86.4754 102.667 88.8493 101.683 90.5997 99.933C92.35 98.1827 93.3334 95.8087 93.3334 93.3333V42L60.6667 9.33334Z" fill="#CB3798"/>
<path id="Vector_2" opacity="0.3" d="M60.9766 9.5817V38.2484C60.9766 40.4575 62.7674 42.2484 64.9766 42.2484H93.6432" fill="white"/>
<g id="PNG">
<path d="M27.6752 88.6667V68.303H35.3115C36.8759 68.303 38.1884 68.5947 39.249 69.178C40.3163 69.7614 41.1217 70.5634 41.6652 71.5843C42.2154 72.5985 42.4905 73.7519 42.4905 75.0445C42.4905 76.3504 42.2154 77.5104 41.6652 78.5246C41.115 79.5388 40.303 80.3376 39.2291 80.9209C38.1553 81.4976 36.8328 81.786 35.2618 81.786H30.2007V78.7533H34.7647C35.6794 78.7533 36.4285 78.5942 37.0118 78.276C37.5952 77.9579 38.026 77.5204 38.3044 76.9635C38.5895 76.4067 38.732 75.767 38.732 75.0445C38.732 74.322 38.5895 73.6856 38.3044 73.1354C38.026 72.5852 37.5918 72.1577 37.0019 71.8527C36.4185 71.5412 35.6662 71.3854 34.7448 71.3854H31.3641V88.6667H27.6752Z" fill="white"/>
<path d="M62.4291 68.303V88.6667H59.1478L49.5527 74.7959H49.3836V88.6667H45.6947V68.303H48.9958L58.5811 82.1837H58.76V68.303H62.4291Z" fill="white"/>
<path d="M80.0907 74.8059C79.9249 74.2689 79.6962 73.7884 79.4046 73.3641C79.1195 72.9332 78.7748 72.5653 78.3705 72.2604C77.9728 71.9555 77.5154 71.7268 76.9983 71.5743C76.4813 71.4152 75.9178 71.3357 75.308 71.3357C74.2142 71.3357 73.2398 71.6108 72.3847 72.161C71.5296 72.7112 70.8568 73.5199 70.3662 74.5871C69.8823 75.6477 69.6404 76.9403 69.6404 78.465C69.6404 80.0028 69.8823 81.3054 70.3662 82.3726C70.8501 83.4399 71.5229 84.2519 72.3847 84.8087C73.2464 85.3589 74.2474 85.634 75.3875 85.634C76.4216 85.634 77.3165 85.4351 78.0722 85.0374C78.8345 84.6397 79.4212 84.0762 79.8321 83.3471C80.2431 82.6113 80.4486 81.7495 80.4486 80.7618L81.2838 80.8911H75.7554V78.0076H84.0182V80.4536C84.0182 82.197 83.647 83.705 82.9046 84.9777C82.1622 86.2505 81.1413 87.2315 79.8421 87.9209C78.5428 88.6037 77.0514 88.9451 75.3676 88.9451C73.4917 88.9451 71.8444 88.5241 70.4259 87.6823C69.014 86.8338 67.9103 85.6307 67.1148 84.0729C66.326 82.5085 65.9316 80.6525 65.9316 78.5047C65.9316 76.8608 66.1636 75.3925 66.6276 74.0999C67.0982 72.8073 67.7545 71.7102 68.5963 70.8087C69.4382 69.9006 70.4259 69.2112 71.5594 68.7405C72.6929 68.2633 73.9259 68.0246 75.2583 68.0246C76.3852 68.0246 77.4358 68.1903 78.4103 68.5218C79.3847 68.8466 80.2497 69.3106 81.0054 69.9138C81.7677 70.517 82.3942 71.233 82.8847 72.0616C83.3752 72.8902 83.6967 73.8049 83.8492 74.8059H80.0907Z" fill="white"/>
</g>
</g>
</svg>
