<svg width="112" height="112" viewBox="0 0 112 112" fill="none" xmlns="http://www.w3.org/2000/svg">
<g id="file">
<path id="Vector" d="M60.6667 9.33334H28C25.5246 9.33334 23.1507 10.3167 21.4003 12.067C19.65 13.8174 18.6667 16.1913 18.6667 18.6667V93.3334C18.6667 95.8087 19.65 98.1827 21.4003 99.933C23.1507 101.683 25.5246 102.667 28 102.667H84C86.4753 102.667 88.8493 101.683 90.5996 99.933C92.35 98.1827 93.3333 95.8087 93.3333 93.3334V42L60.6667 9.33334Z" fill="#049257"/>
<path id="Vector_2" opacity="0.3" d="M60.9766 9.5817V38.2484C60.9766 40.4575 62.7674 42.2484 64.9766 42.2484H93.6432" fill="white"/>
<g id="XLS">
<path d="M33.0909 68.303L37.5753 75.7604H37.7344L42.2386 68.303H46.4446L40.1705 78.4849L46.544 88.6667H42.2685L37.7344 81.259H37.5753L33.0412 88.6667H28.7855L35.2188 78.4849L28.8651 68.303H33.0909Z" fill="white"/>
<path d="M49.3406 88.6667V68.303H53.0295V85.5743H61.9982V88.6667H49.3406Z" fill="white"/>
<path d="M76.2667 73.901C76.1739 73.0327 75.7828 72.3565 75.0934 71.8726C74.4106 71.3887 73.5224 71.1468 72.4286 71.1468C71.6597 71.1468 71.0001 71.2628 70.4499 71.4948C69.8997 71.7268 69.4788 72.0417 69.1872 72.4394C68.8955 72.8371 68.7463 73.2912 68.7397 73.8016C68.7397 74.2259 68.8358 74.5938 69.0281 74.9053C69.2269 75.2169 69.4954 75.482 69.8335 75.7008C70.1715 75.9129 70.5461 76.0919 70.957 76.2377C71.368 76.3835 71.7823 76.5062 72.1999 76.6056L74.109 77.0829C74.878 77.2618 75.6171 77.5038 76.3264 77.8087C77.0423 78.1136 77.6819 78.4981 78.2454 78.9621C78.8155 79.4261 79.2662 79.9863 79.5977 80.6425C79.9291 81.2988 80.0948 82.0677 80.0948 82.9493C80.0948 84.1425 79.7899 85.1932 79.1801 86.1013C78.5702 87.0028 77.6886 87.7088 76.5352 88.2192C75.3884 88.723 73.9997 88.9749 72.369 88.9749C70.7847 88.9749 69.4092 88.7297 68.2426 88.2391C67.0825 87.7486 66.1744 87.0327 65.5181 86.0914C64.8685 85.1501 64.5172 84.0033 64.4641 82.651H68.0934C68.1464 83.3603 68.3652 83.9503 68.7497 84.4209C69.1341 84.8916 69.6346 85.2429 70.2511 85.4749C70.8742 85.7069 71.5702 85.8229 72.3391 85.8229C73.1412 85.8229 73.8439 85.7036 74.4471 85.465C75.0569 85.2197 75.5342 84.8816 75.8789 84.4508C76.2236 84.0133 76.3993 83.5028 76.4059 82.9195C76.3993 82.3892 76.2435 81.9517 75.9386 81.607C75.6337 81.2557 75.2061 80.964 74.6559 80.732C74.1123 80.4934 73.476 80.2813 72.7468 80.0957L70.4301 79.4991C68.753 79.0682 67.4272 78.4153 66.4528 77.5403C65.485 76.6586 65.0011 75.4886 65.0011 74.0303C65.0011 72.8305 65.3259 71.7798 65.9755 70.8783C66.6318 69.9768 67.5233 69.2775 68.6502 68.7803C69.7771 68.2765 71.0532 68.0246 72.4784 68.0246C73.9234 68.0246 75.1895 68.2765 76.2766 68.7803C77.3704 69.2775 78.2288 69.9702 78.8519 70.8584C79.475 71.7401 79.7965 72.7543 79.8164 73.901H76.2667Z" fill="white"/>
</g>
</g>
</svg>
